HIERARCHY
ROOT root
{
	OFFSET	0	13.1	24.9
	CHANNELS 6  Xposition Yposition Zposition Xrotation Yrotation Zrotation
	JOINT spine_1
	{
		OFFSET	0	9.99999	0
		CHANNELS 3  Xrotation Yrotation Zrotation
		JOINT spine_2
		{
			OFFSET	0	112	-10
			CHANNELS 3  Xrotation Yrotation Zrotation
			JOINT spine_3
			{
				OFFSET	0	206.5	19.3
				CHANNELS 3  Xrotation Yrotation Zrotation
				JOINT spine_4
				{
					OFFSET	0	110.4	14.6
					CHANNELS 3  Xrotation Yrotation Zrotation
					JOINT neck_1
					{
						OFFSET	0	71.8	-50.3
						CHANNELS 3  Xrotation Yrotation Zrotation
						JOINT neck_2
						{
							OFFSET	0	86.2	-25.8
							CHANNELS 3  Xrotation Yrotation Zrotation
							JOINT head_ee
							{
								OFFSET	0	179.8	-8.7
								CHANNELS 3  Xrotation Yrotation Zrotation
								End Site
								{
									OFFSET	1	0	0
								}
							}
						}
					}
					JOINT left_clavicle
					{
						OFFSET	-43.2	22.4	-70.8
						CHANNELS 3  Xrotation Yrotation Zrotation
						JOINT left_shoulder
						{
							OFFSET	-93.9	-5.79999	48.7
							CHANNELS 3  Xrotation Yrotation Zrotation
							JOINT left_elbow
							{
								OFFSET	-291.4	-30.8	15.2
								CHANNELS 3  Xrotation Yrotation Zrotation
								JOINT left_lowarm_twist
								{
									OFFSET	-110.7	-3.89999	13.6
									CHANNELS 3  Xrotation Yrotation Zrotation
									JOINT left_hand
									{
										OFFSET	-110.7	-3.89999	13.6
										CHANNELS 3  Xrotation Yrotation Zrotation
										JOINT left_ee
										{
											OFFSET	-80.8	-5.10001	12.1
											CHANNELS 3  Xrotation Yrotation Zrotation
											End Site
											{
												OFFSET	1	0	0
											}
										}
									}
								}
							}
						}
					}
					JOINT right_clavicle
					{
						OFFSET	43.2	22.4	-70.8
						CHANNELS 3  Xrotation Yrotation Zrotation
						JOINT right_shoulder
						{
							OFFSET	93.9	-5.79999	48.7
							CHANNELS 3  Xrotation Yrotation Zrotation
							JOINT right_elbow
							{
								OFFSET	291.4	-30.8	15.2
								CHANNELS 3  Xrotation Yrotation Zrotation
								JOINT right_lowarm_twist
								{
									OFFSET	110.7	-3.89999	13.6
									CHANNELS 3  Xrotation Yrotation Zrotation
									JOINT right_hand
									{
										OFFSET	110.7	-3.89999	13.6
										CHANNELS 3  Xrotation Yrotation Zrotation
										JOINT right_ee
										{
											OFFSET	80.8	-5.10001	12.1
											CHANNELS 3  Xrotation Yrotation Zrotation
											End Site
											{
												OFFSET	1	0	0
											}
										}
									}
								}
							}
						}
					}
				}
			}
		}
	}
	JOINT left_hip
	{
		OFFSET	-82.8	-127.5	0.300001
		CHANNELS 3  Xrotation Yrotation Zrotation
		JOINT left_knee
		{
			OFFSET	-28.2	-396.7	2.2
			CHANNELS 3  Xrotation Yrotation Zrotation
			JOINT left_ankle
			{
				OFFSET	-11.7	-411.3	35.4
				CHANNELS 3  Xrotation Yrotation Zrotation
				JOINT left_toes
				{
					OFFSET	0	-60	-88.6
					CHANNELS 3  Xrotation Yrotation Zrotation
					JOINT left_foot_ee
					{
						OFFSET	-22.5	-16.5	-42.2
						CHANNELS 3  Xrotation Yrotation Zrotation
						End Site
						{
							OFFSET	1	0	0
						}
					}
				}
			}
		}
	}
	JOINT right_hip
	{
		OFFSET	82.8	-127.5	0.300001
		CHANNELS 3  Xrotation Yrotation Zrotation
		JOINT right_knee
		{
			OFFSET	28.2	-396.7	2.2
			CHANNELS 3  Xrotation Yrotation Zrotation
			JOINT right_ankle
			{
				OFFSET	11.7	-411.3	35.4
				CHANNELS 3  Xrotation Yrotation Zrotation
				JOINT right_toes
				{
					OFFSET	0	-60	-88.6
					CHANNELS 3  Xrotation Yrotation Zrotation
					JOINT right_foot_ee
					{
						OFFSET	22.5	-16.5	-42.2
						CHANNELS 3  Xrotation Yrotation Zrotation
						End Site
						{
							OFFSET	1	0	0
						}
					}
				}
			}
		}
	}
}
MOTION
Frames: 5
Frame Time: 0.02
3251.09 693.771 -769.096 -23.1322 53.5394 19.8997 1.62072 -0.145656 -0.208341 1.62074 -0.132104 -0.217187 1.62125 -0.0902658 -0.237642 1.62119 -0.126664 -0.220404 0.339585 12.3333 0.303329 0.704107 21.7112 1.52284 -0.0 0.0 -0.0 2.91335 14.7819 6.42902 -2.75873 -40.0539 58.0527 4.04101 -63.4372 2.49823 -6.66415 -0.281919 0.80344 0.321258 -27.6447 -9.61097 -0.0 0.0 -0.0 7.50026 -1.62231 -14.5675 -28.6811 15.6168 -57.9003 0.511814 14.227 -0.0638729 27.0895 -0.147102 3.42527 -0.512678 -29.0573 -8.56703 0.0 0.0 0.0 0.0293776 11.3668 2.35226 -26.6012 0.159171 4.04259 37.1434 12.9308 -4.64244 -15.824 0.0 0.0 -0.0 0.0 -0.0 45.187 6.13442 -0.371033 3.84884 0.177522 0.56375 -15.1175 5.65864 -2.33972 -20.0874 0.0 0.0 0.0 0.0 0.0 
3236.26 692.671 -780.576 -23.8599 53.8162 20.493 1.62065 -0.154576 -0.07455 1.62064 -0.149519 -0.084235 1.62087 -0.131642 -0.110099 1.62088 -0.147378 -0.0879269 1.21383 12.2275 0.0273749 1.61995 21.6117 1.07652 -0.0 0.0 -0.0 2.62742 14.118 5.93455 -3.78013 -40.1226 57.575 4.15058 -64.0443 2.59649 -6.77974 -0.287629 0.817074 0.458169 -26.324 -8.16491 -0.0 0.0 -0.0 7.54669 -1.86624 -14.6547 -28.3901 15.6508 -58.4429 0.551681 15.2851 -0.0740276 27.1698 -0.145121 3.43534 -0.559455 -28.9725 -8.28087 0.0 0.0 0.0 -0.141231 11.9131 1.94377 -27.5235 0.130927 4.18132 36.8029 13.1797 -4.61273 -15.7839 0.0 0.0 -0.0 0.0 -0.0 47.0257 3.99792 -0.848093 -0.809402 -0.0324809 -0.119965 -16.2837 3.61848 -2.50117 -20.0127 0.0 0.0 0.0 0.0 0.0 
3217.72 694.142 -793.326 -24.4948 54.764 20.4108 1.87447 -0.267393 -0.0708459 1.87444 -0.262343 -0.0877173 1.87485 -0.242529 -0.133032 1.87492 -0.260496 -0.093059 0.738183 12.1985 0.560368 1.09899 21.1965 1.73112 -0.0 0.0 -0.0 2.84124 13.102 6.23741 -4.58462 -40.0788 57.6546 3.75195 -61.7016 2.24164 -6.74884 -0.2861 0.813431 0.632571 -25.4308 -6.64856 -0.0 0.0 -0.0 7.65391 -1.28908 -14.8759 -27.2217 16.2546 -59.0887 0.467134 13.0294 -0.0533448 26.9066 -0.15156 3.40233 -0.644075 -29.0523 -7.85297 0.0 0.0 0.0 -0.368615 12.2839 1.68069 -28.1939 0.108996 4.28187 35.5346 13.189 -4.49002 -15.545 0.0 0.0 -0.0 0.0 -0.0 45.1689 5.65156 -0.173623 0.987756 0.0419328 0.145773 -17.9223 1.54301 -2.7357 -19.9225 0.0 0.0 0.0 0.0 0.0 
3195.58 695.629 -806.453 -24.666 54.6 20.4846 1.95224 -0.0734022 -0.0641207 1.95224 -0.0691733 -0.0686615 1.95232 -0.0559486 -0.0798066 1.95232 -0.0678504 -0.069969 1.52089 12.6321 1.62486 1.89466 20.9512 2.82141 -0.0 0.0 -0.0 2.71373 14.2717 6.08263 -5.22455 -40.2217 59.1152 3.55083 -60.3662 2.06567 -7.63318 -0.330641 0.917384 0.442203 -25.7792 -8.03636 -0.0 0.0 -0.0 7.78912 -0.89915 -15.1505 -27.4231 16.4836 -58.6817 0.535421 14.8548 -0.0698 26.5826 -0.159273 3.36166 -0.673464 -28.6246 -7.5267 0.0 0.0 0.0 -1.03023 12.4284 1.93562 -27.0477 0.145778 4.10981 36.0512 14.6109 -4.55709 -16.111 0.0 0.0 -0.0 0.0 -0.0 46.5678 5.01047 -0.376003 -4.25558 -0.151673 -0.635341 -15.1556 -0.02799 -2.29853 -19.6368 0.0 0.0 0.0 0.0 0.0 
3166.69 702.336 -828.031 -23.3811 54.4437 18.1231 1.48369 -0.000436327 0.150739 1.4837 -0.0100274 0.150406 1.48367 -0.0376486 0.145963 1.48364 -0.014124 0.150077 0.154869 11.5354 -1.59278 0.552389 21.8565 -0.58123 -0.0 0.0 -0.0 2.88799 14.1865 6.36275 -8.76024 -38.2552 57.6686 3.56681 -60.4765 2.07957 -6.67471 -0.28244 0.804687 0.531564 -28.2057 -8.49371 -0.0 0.0 -0.0 7.91636 -2.08279 -15.377 -27.1742 16.7189 -58.5619 0.610635 16.8302 -0.090336 27.3288 -0.141159 3.45527 -0.383814 -28.3402 -9.00002 0.0 0.0 0.0 -0.688401 13.0192 1.70021 -29.8378 0.050243 4.52732 36.0977 13.9385 -4.55338 -15.6732 0.0 0.0 -0.0 0.0 -0.0 43.5902 4.91983 0.650736 -4.55004 -0.160415 -0.679686 -15.0046 6.40721 -2.33003 -18.146 0.0 0.0 0.0 0.0 0.0 
